REM DIRINDEX 1\2\5,1\2\6,1\2\7,1\2\8,1\3\9,1\3\10,1\3\11,1\4\12,1\4\13,1\4\14,1\4\15,1\4\16
REM DIRNAME folder01,folder02,folder03,folder04,folder05,folder06,folder07,folder08,folder09,folder10,folder11,folder12,folder13,folder14,folder15,folder16
TITLE ""
FILE "1200_sec01_0194_0200.mp3" MP3
  TRACK 01 AUDIO
    TITLE "0:"
    INDEX 01 00:00:00
  TRACK 02 AUDIO
    TITLE "12:cjc034_04406"
    INDEX 01 00:00:19
  TRACK 03 AUDIO
    TITLE "0:"
    INDEX 01 00:01:30
  TRACK 04 AUDIO
    TITLE "13:cjc034_04407"
    INDEX 01 00:01:64
  TRACK 05 AUDIO
    TITLE "0:"
    INDEX 01 00:05:24
  TRACK 06 AUDIO
    TITLE "14:cjc034_04408"
    INDEX 01 00:05:57
  TRACK 07 AUDIO
    TITLE "0:"
    INDEX 01 00:06:69
  TRACK 08 AUDIO
    TITLE "15:cjc034_04409"
    INDEX 01 00:07:27
  TRACK 09 AUDIO
    TITLE "0:"
    INDEX 01 00:11:52
  TRACK 10 AUDIO
    TITLE "12:cjc034_04410"
    INDEX 01 00:13:08
  TRACK 11 AUDIO
    TITLE "0:"
    INDEX 01 00:14:23
  TRACK 12 AUDIO
    TITLE "13:cjc034_04411"
    INDEX 01 00:14:56
  TRACK 13 AUDIO
    TITLE "0:"
    INDEX 01 00:16:32
  TRACK 14 AUDIO
    TITLE "14:cjc034_04412"
    INDEX 01 00:16:67
  TRACK 15 AUDIO
    TITLE "0:"
    INDEX 01 00:18:07
  TRACK 16 AUDIO
    TITLE "15:cjc034_04413"
    INDEX 01 00:18:39
  TRACK 17 AUDIO
    TITLE "0:"
    INDEX 01 00:22:64
  TRACK 18 AUDIO
    TITLE "16:cjc034_04414"
    INDEX 01 00:24:22
  TRACK 19 AUDIO
    TITLE "0:"
    INDEX 01 00:25:35
  TRACK 20 AUDIO
    TITLE "12:cjc034_04415"
    INDEX 01 00:26:38
  TRACK 21 AUDIO
    TITLE "0:"
    INDEX 01 00:27:71
  TRACK 22 AUDIO
    TITLE "13:cjc034_04416"
    INDEX 01 00:28:31
  TRACK 23 AUDIO
    TITLE "0:"
    INDEX 01 00:32:17
  TRACK 24 AUDIO
    TITLE "14:cjc034_04417"
    INDEX 01 00:32:52
  TRACK 25 AUDIO
    TITLE "0:"
    INDEX 01 00:34:12
  TRACK 26 AUDIO
    TITLE "15:cjc034_04418"
    INDEX 01 00:34:43
  TRACK 27 AUDIO
    TITLE "0:"
    INDEX 01 00:38:73
  TRACK 28 AUDIO
    TITLE "12:cjc034_04419"
    INDEX 01 00:40:32
  TRACK 29 AUDIO
    TITLE "0:"
    INDEX 01 00:41:49
  TRACK 30 AUDIO
    TITLE "13:cjc034_04420"
    INDEX 01 00:42:10
  TRACK 31 AUDIO
    TITLE "0:"
    INDEX 01 00:43:50
  TRACK 32 AUDIO
    TITLE "14:cjc034_04421"
    INDEX 01 00:44:09
  TRACK 33 AUDIO
    TITLE "0:"
    INDEX 01 00:45:24
  TRACK 34 AUDIO
    TITLE "15:cjc034_04422"
    INDEX 01 00:45:63
  TRACK 35 AUDIO
    TITLE "0:"
    INDEX 01 00:48:16
  TRACK 36 AUDIO
    TITLE "12:cjc034_04423"
    INDEX 01 00:49:49
  TRACK 37 AUDIO
    TITLE "0:"
    INDEX 01 00:50:72
  TRACK 38 AUDIO
    TITLE "13:cjc034_04424"
    INDEX 01 00:51:32
  TRACK 39 AUDIO
    TITLE "0:"
    INDEX 01 00:53:13
  TRACK 40 AUDIO
    TITLE "14:cjc034_04425"
    INDEX 01 00:53:45
  TRACK 41 AUDIO
    TITLE "0:"
    INDEX 01 00:54:68
  TRACK 42 AUDIO
    TITLE "15:cjc034_04426"
    INDEX 01 00:55:28
  TRACK 43 AUDIO
    TITLE "0:"
    INDEX 01 00:58:40
  TRACK 44 AUDIO
    TITLE "12:cjc034_04427"
    INDEX 01 00:59:73
  TRACK 45 AUDIO
    TITLE "0:"
    INDEX 01 01:01:13
  TRACK 46 AUDIO
    TITLE "13:cjc034_04428"
    INDEX 01 01:01:46
  TRACK 47 AUDIO
    TITLE "0:"
    INDEX 01 01:05:36
  TRACK 48 AUDIO
    TITLE "14:cjc034_04429"
    INDEX 01 01:05:69
  TRACK 49 AUDIO
    TITLE "0:"
    INDEX 01 01:07:08
  TRACK 50 AUDIO
    TITLE "15:cjc034_04430"
    INDEX 01 01:07:43
  TRACK 51 AUDIO
    TITLE "0:"
    INDEX 01 01:10:22
  TRACK 52 AUDIO
    TITLE "12:cjc034_04431"
    INDEX 01 01:11:54
  TRACK 53 AUDIO
    TITLE "0:"
    INDEX 01 01:12:62
  TRACK 54 AUDIO
    TITLE "13:cjc034_04432"
    INDEX 01 01:13:22
  TRACK 55 AUDIO
    TITLE "0:"
    INDEX 01 01:15:13
  TRACK 56 AUDIO
    TITLE "14:cjc034_04433"
    INDEX 01 01:15:40
  TRACK 57 AUDIO
    TITLE "0:"
    INDEX 01 01:16:48
  TRACK 58 AUDIO
    TITLE "15:cjc034_04434"
    INDEX 01 01:17:06
  TRACK 59 AUDIO
    TITLE "0:"
    INDEX 01 01:19:13
